<?xml version="1.0" encoding="UTF-8" standalone="no"?>
<!-- Created with Inkscape (http://www.inkscape.org/) -->

<svg
   xmlns:dc="http://purl.org/dc/elements/1.1/"
   xmlns:cc="http://creativecommons.org/ns#"
   xmlns:rdf="http://www.w3.org/1999/02/22-rdf-syntax-ns#"
   xmlns:svg="http://www.w3.org/2000/svg"
   xmlns="http://www.w3.org/2000/svg"
   xmlns:sodipodi="http://sodipodi.sourceforge.net/DTD/sodipodi-0.dtd"
   xmlns:inkscape="http://www.inkscape.org/namespaces/inkscape"
   version="1.1"
   width="3818.3694"
   height="525.20837"
   id="svg2"
   inkscape:version="0.48.5 r10040"
   sodipodi:docname="logo.svg">
  <sodipodi:namedview
     pagecolor="#ffffff"
     bordercolor="#666666"
     borderopacity="1"
     objecttolerance="10"
     gridtolerance="10"
     guidetolerance="10"
     inkscape:pageopacity="0"
     inkscape:pageshadow="2"
     inkscape:window-width="1280"
     inkscape:window-height="752"
     id="namedview15"
     showgrid="false"
     fit-margin-top="10"
     fit-margin-left="40"
     fit-margin-right="40"
     fit-margin-bottom="10"
     inkscape:zoom="0.27441855"
     inkscape:cx="1865.7631"
     inkscape:cy="177.51164"
     inkscape:window-x="0"
     inkscape:window-y="0"
     inkscape:window-maximized="1"
     inkscape:current-layer="svg2" />
  <defs
     id="defs4">
    <filter
       color-interpolation-filters="sRGB"
       id="filter3812">
      <feGaussianBlur
         id="feGaussianBlur3814"
         stdDeviation="0.87281895" />
    </filter>
    <filter
       color-interpolation-filters="sRGB"
       id="filter3832">
      <feGaussianBlur
         id="feGaussianBlur3834"
         stdDeviation="11.852718" />
    </filter>
    <filter
       inkscape:collect="always"
       id="filter3796"
       color-interpolation-filters="sRGB">
      <feGaussianBlur
         inkscape:collect="always"
         stdDeviation="8.0091767"
         id="feGaussianBlur3798" />
    </filter>
  </defs>
  <metadata
     id="metadata7">
    <rdf:RDF>
      <cc:Work
         rdf:about="">
        <dc:format>image/svg+xml</dc:format>
        <dc:type
           rdf:resource="http://purl.org/dc/dcmitype/StillImage" />
        <dc:title />
      </cc:Work>
    </rdf:RDF>
  </metadata>
  <path
     inkscape:connector-curvature="0"
     style="fill:#ffffff;stroke:none"
     id="path3002"
     d="m 237.44632,18.405044 c -2.82144,11.24161 0.18781,19.76273 6.97992,19.76273 5.34637,0 5.23391,-24.54785 -0.12754,-27.86151 -2.29483,-1.4182384 -5.37831,2.22616 -6.85226,8.09878 z m 165.76587,6.86763 c 0,7.0923 1.93428,12.8951 4.29838,12.8951 2.3641,0 4.29836,-5.8028 4.29836,-12.8951 0,-7.09232 -1.93426,-12.89512 -4.29836,-12.89512 -2.3641,0 -4.29838,5.8028 -4.29838,12.89512 z m -236.4103,-2.14918 c 0,3.54614 1.93426,6.44754 4.29836,6.44754 2.36414,0 4.29838,-2.9014 4.29838,-6.44754 0,-3.54616 -1.93424,-6.44756 -4.29838,-6.44756 -2.3641,0 -4.29836,2.9014 -4.29836,6.44756 z m 309.48257,-0.25358 c 0,3.6856 1.93428,6.70115 4.29838,6.70115 2.3641,0 4.29835,-1.8201 4.29835,-4.04467 0,-2.22458 -1.93425,-5.24016 -4.29835,-6.70126 -2.3641,-1.46111 -4.29838,0.35891 -4.29838,4.04469 z m -309.41677,31.05869 c 0.093,17.18228 6.55723,26.61769 13.48788,19.68702 3.759,-3.75901 4.12599,-8.67889 1.25356,-16.8063 -5.7433,-16.25062 -14.82326,-18.025 -14.74144,-2.88072 z m 305.5166,-3.60965 c -6.59767,12.32788 -5.84305,26.53426 1.40944,26.53426 3.35834,0 7.42254,-5.994 9.03162,-13.31996 3.63847,-16.56592 -3.68611,-25.83604 -10.44106,-13.2143 z m -227.26353,9.0041 c 0.66053,5.72508 3.6188,11.20551 6.57393,12.17874 7.31152,2.40787 6.75939,-4.14092 -1.20097,-14.24428 -6.36613,-8.07999 -6.53599,-8.01475 -5.37296,2.06554 z m 154.33135,-0.36967 c -6.03049,10.9418 -3.20262,17.98523 4.23486,10.54777 2.54637,-2.54639 3.88022,-8.22023 2.96407,-12.60854 -1.49487,-7.16027 -2.23332,-6.94888 -7.19893,2.06077 z m -214.87676,27.94702 c -3.64363,4.390333 -2.31975,8.051583 5.60305,15.494636 10.33943,9.7132 19.6072,9.00975 19.6072,-1.48835 0,-5.315033 -13.21587,-19.755186 -18.08024,-19.755186 -1.29742,0 -4.50593,2.58693 -7.13001,5.74871 z m 264.84432,0.2346 c -8.03696,6.100933 -10.01164,17.760736 -3.67149,21.679126 6.67561,4.12578 23.63273,-12.752063 20.64205,-20.545616 -3.26388,-8.50552 -6.93606,-8.75078 -16.97056,-1.13351 z m -192.35202,4.913593 c 0,10.932123 13.33668,27.788193 21.98622,27.788193 10.66878,0 10.28451,-2.02286 -3.71815,-19.57217 -12.83065,-16.080466 -18.26807,-18.525936 -18.26807,-8.216023 z m 118.71533,8.158733 c -13.49602,17.69419 -13.7691,19.62946 -2.76976,19.62946 5.05014,0 11.14176,-5.13498 15.04429,-12.68166 13.0711,-25.276656 5.13278,-29.769946 -12.27453,-6.9478 z m -158.83342,9.59995 c -4.459,4.459 -3.36923,18.62625 1.43278,18.62625 2.36409,0 4.29835,2.9014 4.29835,6.44755 0,4.85899 -5.21946,6.44755 -21.1848,6.44755 -13.52779,0 -23.62622,2.44139 -27.93941,6.75458 -12.41735,12.41734 -6.55983,19.62621 17.99395,22.14515 11.16223,1.14509 17.01359,-1.22671 26.54769,-10.7608 6.72628,-6.72629 17.27897,-15.53809 23.4504,-19.58175 14.65586,-9.60288 14.16356,-13.23079 -3.25627,-23.99684 -15.98277,-9.8779 -17.19975,-10.22464 -21.34269,-6.08169 z m 195.93396,6.22566 c -7.68333,4.9205 -13.96874,10.20717 -13.96758,11.74807 0.002,2.82618 36.30381,34.99467 46.13224,40.87974 2.91489,1.74538 12.10267,1.89721 20.41724,0.33741 12.04538,-2.25973 15.11742,-4.82907 15.11742,-12.64373 0,-11.97444 -7.15494,-15.0258 -35.23288,-15.0258 l -21.63462,0 7.26855,-11.0932 c 6.90079,-10.53194 6.47376,-23.37757 -0.772,-23.22133 -1.84726,0.0389 -9.64502,4.09828 -17.32837,9.01888 z m -112.83218,18.38764 c -35.59553,7.80147 -71.2038,27.40276 -63.59785,35.00871 1.15647,1.15651 21.74191,-0.1303 45.7454,-2.85985 32.98979,-3.75137 54.29553,-3.75137 87.28534,0 24.00346,2.7294 44.50695,4.09831 45.56326,3.04197 6.94884,-6.94881 -34.00144,-30.08845 -61.50394,-34.75385 -9.32582,-1.58192 -19.85749,-3.49323 -23.40363,-4.24731 -3.54615,-0.7541 -17.08602,0.96059 -30.08858,3.81033 z m -168.34129,20.32799 c -13.71058,5.08087 -18.16362,14.22583 -10.16113,20.86736 8.6611,7.18804 37.81942,-5.73025 35.86311,-15.88878 -1.74681,-9.07047 -10.22739,-10.71317 -25.70198,-4.97858 z m 363.1944,1.95765 c -3.5261,9.18882 6.55358,18.17879 22.21454,19.81298 10.23638,1.06814 13.15322,-0.45722 14.14707,-7.39814 0.93594,-6.53622 -2.39668,-10.06304 -13.20026,-13.96969 -18.52153,-6.69747 -20.03362,-6.59599 -23.16135,1.55485 z M 88.242676,179.20035 c -12.81092,7.77322 -15.63913,18.00707 -4.97642,18.00707 10.45615,0 23.358464,-8.25334 23.358464,-14.94186 0,-9.7009 -5.84069,-10.67484 -18.382044,-3.06521 z m 179.570904,-2.75156 c -38.35503,3.21501 -72.16043,15.60416 -79.37832,29.09097 -11.22194,20.96839 23.25814,93.69955 67.78689,142.98761 11.46342,12.68863 14.09376,18.62256 11.98292,27.03274 -3.20926,12.78673 -1.59954,13.17347 13.54036,3.2534 16.63804,-10.90165 71.85529,-10.53005 88.28855,0.59416 13.66608,9.25104 18.72851,7.19128 12.21915,-4.97152 -3.66282,-6.84409 -2.13081,-10.56721 8.55281,-20.78542 16.41338,-15.69827 49.05062,-64.979 62.52329,-94.40722 11.67108,-25.49294 14.07259,-49.87296 5.88444,-59.73907 -16.13385,-19.44013 -105.74977,-30.235 -191.40009,-23.05565 z m 278.66524,1.76514 c -3.19837,8.33479 8.52624,18.99349 20.89297,18.99349 9.83298,0 9.93273,-5.41144 0.25326,-13.72429 -13.62072,-11.69732 -18.23782,-12.8478 -21.14601,-5.2692 z m -395.79581,18.87774 c -27.70394,12.57528 -23.43471,31.115 5.00374,21.72947 8.96256,-2.95792 15.47914,-8.41376 17.05072,-14.27532 5.10547,-19.04196 4.17032,-19.35803 -22.05446,-7.45415 z m 325.60145,-0.48089 c 0,23.49717 42.42419,35.88063 42.9179,12.52758 0.0734,-3.4735 -18.3995,-13.54357 -33.24657,-18.12355 -7.79568,-2.4048 -9.67133,-1.31951 -9.67133,5.59597 z M 50.296141,212.93114 40,224.09147 53.969714,216.98663 c 14.778482,-7.51612 16.196362,-9.29891 10.296152,-12.94545 -2.02045,-1.24869 -8.306832,2.7518 -13.969725,8.88996 z m 536.087109,-7.92036 c -2.53312,4.09871 17.95067,20.32131 21.35747,16.91452 0.9676,-0.9676 -2.86469,-6.10331 -8.51624,-11.41265 -5.69013,-5.34563 -11.42041,-7.80076 -12.84123,-5.50187 z m -55.804,12.40698 c -6.41353,6.41353 -1.76119,17.18458 10.56844,24.46784 17.29796,10.21817 26.85371,3.1865 14.38821,-10.58774 -10.19408,-11.26432 -21.36146,-17.47529 -24.95665,-13.8801 z M 97.974506,229.50217 c -7.36168,7.83612 -8.85434,12.09728 -5.43528,15.51633 6.45112,6.45116 31.278974,-8.35172 31.278974,-18.64922 0,-11.20758 -13.96149,-9.51515 -25.843694,3.13291 z m 45.663104,50.5516 c -13.26477,21.92449 -24.11777,41.94047 -24.11777,44.48009 0,2.53961 8.04262,8.24419 17.8725,12.67688 17.44866,7.86821 17.98385,7.86889 22.56642,0.0306 2.5817,-4.41642 10.98033,-16.4703 18.66366,-26.78629 7.68331,-10.31606 13.9697,-20.73825 13.9697,-23.16048 0,-4.98853 -20.77575,-47.10198 -23.2367,-47.10198 -0.88003,0 -12.45304,17.93819 -25.71781,39.86263 z m 326.27173,-18.51364 c -5.9501,11.74195 -10.81833,23.34308 -10.81833,25.78025 0,3.78925 24.71244,41.57564 35.00552,53.52497 3.91177,4.54122 38.06674,-9.51901 38.06674,-15.67057 0,-4.31973 -47.35261,-84.98358 -49.88843,-84.98358 -0.85094,0 -6.41543,9.60704 -12.3655,21.34899 z m -401.667454,-0.4221 c -2.36411,4.41736 -3.0937,9.23626 -1.62135,10.70861 3.75607,3.75611 14.21396,-5.67539 14.21396,-12.81893 0,-8.54572 -7.56852,-7.27735 -12.59261,2.11032 z M 568.9136,257.03828 c -3.18595,5.15495 10.03178,18.35635 15.18824,15.16945 2.36993,-1.46465 2.1698,-5.80102 -0.49776,-10.78542 -4.79747,-8.96419 -10.76006,-10.74358 -14.69048,-4.38403 z m -466.34568,94.45916 c -6.302354,11.77602 3.17502,17.94495 22.70104,14.77634 21.85998,-3.54741 23.28362,-8.55649 4.64515,-16.34413 -20.08575,-8.39236 -22.07681,-8.27817 -27.34619,1.56779 z m 417.17306,-1.13975 c -17.43084,7.66208 -13.57851,13.39046 10.27311,15.27611 15.81335,1.25017 17.19348,0.50139 17.19348,-9.32778 0,-12.93578 -7.75155,-14.6145 -27.46659,-5.94839 z m -390.5498,27.51522 c -5.31924,2.1381 -9.67134,5.567 -9.67134,7.61984 0,4.82605 38.6591,53.46141 61.66957,77.58385 30.0081,31.45822 72.01086,52.42493 90.67519,45.26277 5.52935,-2.12179 2.46427,-5.86846 -13.71406,-16.76357 -23.53272,-15.84785 -37.83928,-33.02524 -53.86875,-64.6783 -13.08391,-25.83652 -42.15863,-53.5681 -55.76032,-53.18441 -5.31245,0.14988 -14.01108,2.02177 -19.33029,4.15982 z m 344.31903,13.49348 c -9.8002,10.2357 -22.14677,27.31455 -27.43679,37.95303 -14.38091,28.92049 -32.84667,50.38715 -54.01429,62.79221 -21.81761,12.78596 -20.94609,21.01708 1.77408,16.75476 36.65495,-6.87651 72.07043,-34.83406 114.80724,-90.63075 27.12841,-35.41858 27.06136,-39.74006 -0.67235,-43.32735 -15.20979,-1.96737 -18.1702,-0.55338 -34.45789,16.4581 z m -268.023,20.17988 c 0,8.96599 18.48017,25.96493 31.2156,28.71361 7.65446,1.65208 21.35822,6.77119 30.45272,11.37582 19.81105,10.03049 22.99397,8.43853 11.73812,-5.87088 -14.77041,-18.77758 -73.40644,-46.11087 -73.40644,-34.21855 z m 204.17256,7.46755 c -22.08193,11.26616 -45.1329,30.34715 -45.1329,37.35986 0,2.17474 2.41784,2.88932 5.37296,1.58795 2.95513,-1.30137 17.94571,-7.50584 33.31236,-13.78769 24.87287,-10.16802 42.61377,-23.86936 42.88811,-33.12261 0.18536,-6.24208 -15.17967,-2.88478 -36.44053,7.96249 z" />
  <text
     sodipodi:linespacing="0%"
     style="font-size:2216.92578125px;font-style:normal;font-variant:normal;font-weight:bold;font-stretch:normal;text-align:start;line-height:0%;letter-spacing:0px;word-spacing:0px;writing-mode:lr-tb;text-anchor:start;fill:#0e232e;fill-opacity:1;stroke:none;font-family:Agency FB;-inkscape-font-specification:Agency FB Bold"
     xml:space="preserve"
     id="text3798"
     transform="scale(0.8815573,1.1343562)"
     y="449.59424"
     x="723.3429"><tspan
       id="tspan3800"
       y="449.59424"
       x="723.3429"
       style="font-size:587.70489502px;font-style:normal;font-variant:normal;font-weight:bold;font-stretch:normal;text-align:start;line-height:0%;writing-mode:lr-tb;text-anchor:start;stroke:none;font-family:Maven Pro;-inkscape-font-specification:Maven Pro Bold">crabschool<tspan
   style="fill:#ffffff"
   id="tspan2995">.io</tspan></tspan></text>
  <text
     xml:space="preserve"
     style="font-size:666.66668701px;font-style:normal;font-weight:normal;line-height:125%;letter-spacing:0px;word-spacing:0px;fill:#ff0000;fill-opacity:1;stroke:none;font-family:Sans"
     x="3125.7175"
     y="509.99997"
     id="text2997"
     sodipodi:linespacing="125%"><tspan
       sodipodi:role="line"
       id="tspan2999"
       x="3125.7175"
       y="509.99997"
       style="font-size:587.70489502px;font-style:normal;font-variant:normal;font-weight:bold;font-stretch:normal;text-align:start;line-height:125%;writing-mode:lr-tb;text-anchor:start;fill:#ff0000;fill-opacity:1;stroke:none;font-family:Maven Pro;-inkscape-font-specification:Maven Pro Bold" /></text>
</svg>
